<svg width="684" height="684" viewBox="0 0 684 684" fill="none" xmlns="http://www.w3.org/2000/svg">
<path d="M402.201 47.543C402.201 47.5528 413.288 278.341 153.84 343.665V474.162L338.493 585.632L531.619 474.162V97.3845H473.304C473.304 97.3845 462.384 289.186 270.329 380.906C270.343 380.446 270.35 379.984 270.35 379.521C270.35 363.678 262.146 349.752 249.754 341.76C320.931 306.841 423.917 228.156 432.938 47.543H578.302V501.741L338.493 638.632L105 501.741V299.062C105 299.062 312.455 299.062 352.282 97.3845H319.388C273.167 268.248 105 268.248 105 268.248V147.303C105.013 147.303 165.582 145.217 191.809 97.9683C199.096 109.033 211.629 116.335 225.868 116.335C229.754 116.335 233.512 115.791 237.072 114.775C224.614 140.561 200.405 167.37 153.84 182.354V214.17C286.725 177.193 280.1 47.543 280.1 47.543H402.201Z" fill="white"/>
<path d="M235.845 379.403C235.844 373.603 231.142 368.902 225.343 368.902C219.543 368.902 214.842 373.603 214.842 379.403C214.842 385.202 219.543 389.905 225.343 389.905V408.754L224.586 408.744C208.726 408.343 195.993 395.359 195.993 379.403C195.993 363.193 209.133 350.053 225.343 350.053C241.552 350.053 254.694 363.193 254.694 379.403L254.684 380.161C254.282 396.02 241.299 408.754 225.343 408.754V389.905C231.142 389.905 235.845 385.202 235.845 379.403Z" fill="white"/>
<path d="M235.845 74.35C235.844 68.5505 231.142 63.8492 225.343 63.8492C219.543 63.8493 214.842 68.5506 214.842 74.35C214.842 80.1496 219.543 84.8518 225.343 84.852V103.701L224.586 103.691C208.726 103.29 195.993 90.3066 195.993 74.35C195.993 58.1405 209.133 45.0002 225.343 45C241.552 45 254.694 58.1404 254.694 74.35L254.684 75.108C254.282 90.9676 241.299 103.701 225.343 103.701V84.852C231.142 84.852 235.845 80.1497 235.845 74.35Z" fill="white"/>
</svg>
